<svg style="image-rendering:optimizeQuality;text-rendering:geometricPrecision;shape-rendering:geometricPrecision" xmlns="http://www.w3.org/2000/svg" fill-rule="evenodd" height="25mm" width="25mm" version="1.1" clip-rule="evenodd" xmlns:xlink="http://www.w3.org/1999/xlink" viewBox="0 0 4386 4386">
 <defs>
  <style type="text/css"><![CDATA[
    @font-face { font-family:"Lato";font-variant:normal;font-weight:bold;src:url("#FontID1") format(svg)}
    @font-face { font-family:"Lato";font-variant:normal;font-weight:normal;src:url("#FontID0") format(svg)}
    .fil9 {fill:none}
    .fil1 {fill:#EA5B24}
    .fil0 {fill:#0079AB}
    .fil3 {fill:url(#id0)}
    .fil6 {fill:url(#id1)}
    .fil2 {fill:url(#id2)}
    .fil4 {fill:url(#id3)}
    .fil10 {fill:url(#id4)}
    .fil8 {fill:url(#id5)}
    .fil7 {fill:url(#id6)}
    .fil11 {fill:url(#id7)}
    .fil5 {fill:url(#id8)}
    .fnt0 {font-weight:normal;font-size:2317.82px;font-family:'Lato'}
    .fnt1 {font-weight:bold;font-size:2317.82px;font-family:'Lato'}
   ]]></style>
  <linearGradient id="id0" y2="3207.8" gradientUnits="userSpaceOnUse" x2="2677.7" y1="1114.9" x1="357.42">
   <stop stop-color="#C9293E" offset="0"/>
   <stop stop-color="#822887" offset="1"/>
  </linearGradient>
  <linearGradient id="id1" y2="2862.9" gradientUnits="userSpaceOnUse" x2="4184.4" y1="765.56" x1="2108.9">
   <stop stop-color="#44A3CE" offset="0"/>
   <stop stop-color="#FDD100" offset="1"/>
  </linearGradient>
  <linearGradient id="id2" y2="3207.8" gradientUnits="userSpaceOnUse" x2="3652.4" y1="765.54" x1="1134.2">
   <stop stop-color="#44A3CE" offset="0"/>
   <stop stop-color="#C92B2F" offset="1"/>
  </linearGradient>
  <linearGradient id="id3" y2="2979.3" gradientUnits="userSpaceOnUse" x2="2602.6" y1="1114.9" x1="357.42">
   <stop stop-color="#FDD100" offset="0"/>
   <stop stop-color="#EA5B24" offset="1"/>
  </linearGradient>
  <linearGradient id="id4" y2="2849" gradientUnits="userSpaceOnUse" x2="3046.1" y1="1735.7" x1="993.33">
   <stop stop-color="#ED751E" offset="0"/>
   <stop stop-color="#CC8F26" offset="1"/>
  </linearGradient>
  <linearGradient id="id5" y2="3646.9" gradientUnits="userSpaceOnUse" x2="4339.4" y1="935.24" x1="1901">
   <stop stop-color="#EA5B24" offset="0"/>
   <stop stop-color="#009B4C" offset="1"/>
  </linearGradient>
  <linearGradient id="id6" y2="2854.7" xlink:href="#id5" gradientUnits="userSpaceOnUse" x2="4372" y1="450.44" x1="2363.9"/>
  <linearGradient id="id7" y2="2847.5" gradientUnits="userSpaceOnUse" x2="4296.5" y1="1734.6" x1="2242.4">
   <stop stop-color="#F08619" offset="0"/>
   <stop stop-color="#63AF3D" offset="1"/>
  </linearGradient>
  <linearGradient id="id8" y2="2862.9" gradientUnits="userSpaceOnUse" x2="4184.4" y1="765.56" x1="2108.9">
   <stop stop-color="#FDD100" offset="0"/>
   <stop stop-color="#ACB42A" offset="1"/>
  </linearGradient>
  <linearGradient id="linearGradient4591" y2="3646.9" xlink:href="#id5" gradientUnits="userSpaceOnUse" x2="4339.4" y1="935.24" x1="1901"/>
 </defs>
 <path fill="url(#id2)" class="fil2" d="m2193 0c1211 0 2193 982 2193 2193s-982 2193-2193 2193-2193-982-2193-2193 982-2193 2193-2193zm0 975c673 0 1218 545 1218 1218s-545 1218-1218 1218-1218-545-1218-1218 545-1218 1218-1218z"/>
 <path fill="url(#id0)" class="fil3" d="m1706 54c976 222 1705 1095 1705 2139s-729 1917-1705 2139c-977-222-1706-1095-1706-2139s729-1917 1706-2139zm487 921c673 0 1218 545 1218 1218s-545 1218-1218 1218-1218-545-1218-1218 545-1218 1218-1218z"/>
 <path fill="url(#id3)" class="fil4" d="m1706 54c976 222 1705 1095 1705 2139 0 354-84 689-233 985-287 145-611 228-954 233 659-17 1187-556 1187-1218 0-673-545-1218-1218-1218s-1218 545-1218 1218c0 662 528 1201 1187 1218-1030-15-1888-739-2108-1705 186-820 832-1466 1652-1652z"/>
 <path fill="url(#id8)" class="fil5" d="m2680 4332c-966-220-1690-1078-1705-2107 17 658 556 1186 1218 1186 673 0 1218-545 1218-1218s-545-1218-1218-1218c-662 0-1201 528-1218 1186 15-1029 739-1887 1705-2107 977 222 1706 1095 1706 2139s-729 1917-1706 2139z"/>
 <path fill="url(#id1)" class="fil6" d="m1208 3178c-145-287-228-611-233-953 17 647 539 1170 1187 1186-343-5-666-88-954-233zm1016 233c659-17 1187-556 1187-1218 0-673-545-1218-1218-1218-662 0-1201 528-1218 1186 15-1029 739-1887 1705-2107 820 186 1465 832 1652 1652-220 966-1078 1690-2108 1705z"/>
 <path fill="url(#id6)" class="fil7" d="m975 2193c0-861 496-1606 1218-1965 722 359 1218 1104 1218 1965 0-673-545-1218-1218-1218s-1218 545-1218 1218z"/>
 <path fill="url(#linearGradient4591)" class="fil8" d="m2193 4158c-722-359-1218-1104-1218-1965 0 673 545 1218 1218 1218s1218-545 1218-1218c0 861-496 1606-1218 1965z"/>
 <path fill="none" class="fil9" d="m3212 3108c-2 5-5 9-7 14v1c-4 7-7 15-11 22l-4 10c-4 7-8 14-11 22l-1 1c-287 145-611 228-954 233"/>
 <path fill="none" class="fil9" d="m2224 3411c11 0 21-1 31-1 5-1 10-1 16-1 5-1 10-1 15-1 4-1 8-1 12-1 7-1 13-1 19-2 4 0 9-1 14-1 5-1 11-2 16-2 5-1 9-2 14-2 5-1 11-2 16-3 5 0 10-1 14-2 5-1 11-2 16-2l15-3 15-3 15-3c5-1 9-2 14-3 5-2 10-3 15-4s9-2 14-4l15-3c5-2 9-3 14-4 5-2 10-3 14-4 5-2 10-3 15-5 4-1 9-3 14-4 4-2 9-3 14-5 5-1 9-3 14-5 5-1 9-3 14-5 5-1 9-3 14-5s9-3 13-5c5-2 10-4 14-6 5-1 9-3 14-5s9-4 14-6c4-2 8-4 13-6 4-2 9-4 13-6 5-2 9-4 14-6 4-2 8-4 13-7 4-2 8-4 13-6 4-2 9-5 13-7s8-4 13-7c4-2 8-4 13-7 4-2 8-4 12-7 5-2 9-5 13-7 4-3 8-5 12-7 5-3 9-6 13-8 4-3 8-5 12-8s9-5 13-8 8-5 12-8 8-5 12-8 8-6 12-8l12-9c3-3 7-5 11-8l12-9c4-3 8-6 11-9l12-9c4-3 7-6 11-9s8-6 11-9c4-3 8-6 11-10 4-3 8-6 11-9 4-3 8-7 11-10 4-3 7-6 11-10 3-3 7-6 10-9 4-4 8-7 11-11 3-3 7-6 10-9l11-11c3-3 6-7 10-10 3-4 6-7 10-11 3-3 6-7 10-10 3-4 6-7 9-11 4-4 7-7 10-11 3-3 6-7 10-11 3-4 6-7 9-11s6-7 9-11 6-8 9-11c3-4 6-8 9-12s6-7 9-11 6-8 9-12 6-8 8-12c3-4 6-8 9-12 3-3 5-7 8-11s6-9 8-13c3-4 6-7 8-11 3-5 6-9 8-13 3-4 5-8 8-12 2-4 5-9 8-13 2-4 4-8 7-12 2-4 5-9 7-13 3-4 5-8 7-12 3-5 5-9 8-14l6-12c2-4 5-9 7-14l6-12c3-5 5-9 7-14 2-4 4-8 6-13 2-4 4-9 6-13 2-5 4-9 6-13 2-5 4-10 6-14 2-5 4-9 5-14 2-4 4-9 6-14 2-4 3-9 5-13 2-5 4-10 5-14 2-5 4-10 5-14 2-5 4-10 5-14 2-5 3-10 5-14 1-5 3-10 4-15 2-4 3-9 4-13 2-5 3-10 5-15 1-5 2-10 4-14 1-5 2-10 4-15 1-5 2-9 3-14s2-10 4-15c1-5 2-9 3-14s2-10 3-16c1-4 2-9 3-14l3-15c0-5 1-10 2-16 1-4 2-9 2-14l3-15c0-5 1-10 2-15 0-5 1-10 1-15 1-5 2-10 2-16 1-4 1-9 1-13 1-6 1-12 2-17 0-4 0-8 1-12 0-6 0-13 1-19v-14c0-5 1-11 1-17v-31 39 3c0 13-1 25-1 37v2c-1 13-1 25-2 38v3c-1 12-1 24-2 36l-1 4c0 12-1 24-3 36v4c-1 11-2 23-3 34l-1 5c-1 12-2 23-4 35l-1 5c-1 11-2 22-4 33l-1 7c-2 10-3 20-5 30l-1 7c-2 11-3 22-5 32l-2 9c-2 9-3 18-5 28l-2 9c-2 10-4 19-6 29l-3 12c-2 8-4 17-5 25l-3 11c-2 9-4 17-6 25-2 5-3 10-4 15l-6 24c-2 4-3 8-4 12-2 8-4 15-6 22-2 6-4 12-5 18-2 7-4 13-6 19s-4 11-5 16c-2 7-5 14-7 20-2 7-4 13-6 19-2 5-3 10-5 16-3 6-5 13-7 20-2 6-5 11-7 17-2 8-5 15-8 22l-4 11c-3 7-6 15-9 23l-4 10c-4 8-7 17-10 25-2 5-4 9-6 13-3 8-7 15-10 23l-4 9"/>
 <path fill="url(#id4)" class="fil10" d="m1208 3178c-149-296-233-630-233-984 0 21 0 41 1 61 0 3 1 6 1 9 0 7 1 15 1 22 0 4 1 7 1 10 1 7 1 14 2 21 0 3 1 6 1 10 1 6 1 13 2 20 1 4 1 7 2 10 1 7 2 14 3 20 0 4 1 7 1 11 1 6 2 13 3 19l3 12 3 18 3 12c1 6 2 12 3 17 1 4 2 9 3 13 2 5 3 11 5 16 1 5 2 9 3 13 1 6 3 11 4 16 1 4 3 9 4 13 2 5 3 11 5 16 1 4 2 8 4 12 1 5 3 11 5 16 1 4 3 8 4 12 2 5 4 11 6 16 1 4 3 8 4 12 2 5 4 11 6 16 2 4 3 8 5 12l6 15c2 4 4 8 5 13 3 4 5 9 7 14 2 4 4 8 5 12 3 5 5 10 7 15l6 12c2 4 5 9 7 14l6 12c3 5 5 9 8 14l6 12c3 4 5 9 8 13 2 4 4 8 7 12 2 5 5 9 8 14 2 4 4 7 7 11 2 5 5 9 8 13 2 4 5 8 7 12 3 4 6 9 9 13 2 4 5 7 7 11 3 4 6 9 9 13s6 7 8 11c3 4 6 8 9 12s6 8 9 11c3 4 6 8 9 12s6 8 8 11c4 4 7 8 10 12s6 7 9 11 6 8 10 11c3 4 6 7 9 11s6 8 10 11c3 4 6 7 9 10 3 4 7 8 10 12 4 3 7 6 10 10l10 10c4 4 7 7 11 10 3 4 7 7 10 11 4 3 7 6 10 9 4 4 8 7 12 11l9 9c4 3 8 7 12 10 3 3 7 6 10 9 4 3 8 7 12 10s7 6 11 9l12 9c3 3 7 6 10 9l12 9 12 9c4 3 8 5 12 8s7 6 11 9c4 2 8 5 12 8s8 5 12 8 8 6 13 8c4 3 8 5 12 8s8 5 12 8c4 2 8 5 12 7 5 3 9 6 13 8s8 5 12 7c5 3 9 5 14 8l12 6c4 3 9 5 14 7 4 3 8 5 12 7 5 2 9 4 14 7l12 6c5 2 10 4 14 6s9 4 13 6c5 2 9 4 14 6 4 2 9 4 13 6 5 2 9 4 14 6 5 1 9 3 13 5l15 6c4 1 9 3 13 4l15 6c4 1 8 3 13 4 5 2 10 3 15 5 4 1 9 3 13 4 5 2 10 3 15 5 5 1 9 2 14 4 5 1 10 3 15 4s9 2 13 3c6 2 11 3 17 4 4 1 8 2 13 3 5 2 10 3 15 4s9 2 14 3l15 3c5 1 10 2 15 2 5 1 11 2 16 3s9 2 14 2l18 3c4 1 8 1 12 2 6 0 12 1 19 2 4 0 7 1 11 1 6 1 13 1 19 2 4 0 8 0 12 1 5 0 11 0 16 1 5 0 10 0 15 1 10 0 20 1 31 1-343-5-667-88-954-233z"/>
 <path fill="url(#id7)" class="fil11" d="m2224 3411c11 0 21-1 31-1 5-1 10-1 16-1 5-1 10-1 15-1 4-1 8-1 12-1 7-1 13-1 19-2 4 0 9-1 14-1 5-1 11-2 16-2 5-1 9-2 14-2 5-1 11-2 16-3 5 0 10-1 14-2 5-1 11-2 16-2l15-3 15-3 15-3c5-1 9-2 14-3 5-2 10-3 15-4s9-2 14-4l15-3c5-2 9-3 14-4 5-2 10-3 14-4 5-2 10-3 15-5 4-1 9-3 14-4 4-2 9-3 14-5 5-1 9-3 14-5 5-1 9-3 14-5 5-1 9-3 14-5s9-3 13-5c5-2 10-4 14-6 5-1 9-3 14-5s9-4 14-6c4-2 8-4 13-6 4-2 9-4 13-6 5-2 9-4 14-6 4-2 8-4 13-7 4-2 8-4 13-6 4-2 9-5 13-7s8-4 13-7c4-2 8-4 13-7 4-2 8-4 12-7 5-2 9-5 13-7 4-3 8-5 12-7 5-3 9-6 13-8 4-3 8-5 12-8s9-5 13-8 8-5 12-8 8-5 12-8 8-6 12-8l12-9c3-3 7-5 11-8l12-9c4-3 8-6 11-9l12-9c4-3 7-6 11-9s8-6 11-9c4-3 8-6 11-10 4-3 8-6 11-9 4-3 8-7 11-10 4-3 7-6 11-10 3-3 7-6 10-9 4-4 8-7 11-11 3-3 7-6 10-9l11-11c3-3 6-7 10-10 3-4 6-7 10-11 3-3 6-7 10-10 3-4 6-7 9-11 4-4 7-7 10-11 3-3 6-7 10-11 3-4 6-7 9-11s6-7 9-11 6-8 9-11c3-4 6-8 9-12s6-7 9-11 6-8 9-12 6-8 8-12c3-4 6-8 9-12 3-3 5-7 8-11s6-9 8-13c3-4 6-7 8-11 3-5 6-9 8-13 3-4 5-8 8-12 2-4 5-9 8-13 2-4 4-8 7-12 2-4 5-9 7-13 3-4 5-8 7-12 3-5 5-9 8-14l6-12c2-4 5-9 7-14l6-12c3-5 5-9 7-14 2-4 4-8 6-13 2-4 4-9 6-13 2-5 4-9 6-13 2-5 4-10 6-14 2-5 4-9 5-14 2-4 4-9 6-14 2-4 3-9 5-13 2-5 4-10 5-14 2-5 4-10 5-14 2-5 4-10 5-14 2-5 3-10 5-14 1-5 3-10 4-15 2-4 3-9 4-13 2-5 3-10 5-15 1-5 2-10 4-14 1-5 2-10 4-15 1-5 2-9 3-14s2-10 4-15c1-5 2-9 3-14s2-10 3-16c1-4 2-9 3-14l3-15c0-5 1-10 2-16 1-4 2-9 2-14l3-15c0-5 1-10 2-15 0-5 1-10 1-15 1-5 2-10 2-16 1-4 1-9 1-13 1-6 1-12 2-17 0-4 0-8 1-12 0-6 0-13 1-19v-14c0-5 1-11 1-17v-31c0 354-84 689-233 985-287 145-611 228-954 233z"/>
</svg>
